
<svg version="1.1" id="Capa_1" xmlns="http://www.w3.org/2000/svg" xmlns:xlink="http://www.w3.org/1999/xlink" x="0px" y="0px"
	 viewBox="0 0 52.669 52.669" style="enable-background:new 0 0 52.669 52.669;" xml:space="preserve">
<g>
	<g>
		<path d="M33.463,42.496c-7.284,0-13.474-4.75-15.649-11.313H9.05v-3.232h8.045c-0.075-0.637-0.118-1.283-0.118-1.94
			c0-0.879,0.071-1.742,0.204-2.585H9.05v-3.232h8.99c0.625-1.651,1.508-3.175,2.599-4.525H9.05v-3.232h15.075v-0.002
			c2.656-1.833,5.873-2.909,9.337-2.909c2.106,0,4.119,0.401,5.972,1.124V2.415H0v41.374c0,3.556,2.909,6.465,6.465,6.465H32.97
			c3.556,0,6.465-2.909,6.465-6.465v-2.417C37.582,42.095,35.569,42.496,33.463,42.496z"/>
	</g>
</g>
<g>
	<g>
		<path d="M44.488,33.36c1.405-2.104,2.226-4.631,2.226-7.35c0-7.319-5.933-13.252-13.253-13.252
			c-7.321,0-13.253,5.933-13.253,13.252c0,7.319,5.931,13.253,13.253,13.253c2.965,0,5.693-0.985,7.9-2.63l8.109,8.109l3.199-3.2
			L44.488,33.36z M33.462,36.031c-5.525,0-10.02-4.495-10.02-10.021c0-5.525,4.495-10.02,10.02-10.02
			c5.525,0,10.02,4.495,10.02,10.02C43.482,31.535,38.988,36.031,33.462,36.031z"/>
	</g>
</g>
<g>
</g>
<g>
</g>
<g>
</g>
<g>
</g>
<g>
</g>
<g>
</g>
<g>
</g>
<g>
</g>
<g>
</g>
<g>
</g>
<g>
</g>
<g>
</g>
<g>
</g>
<g>
</g>
<g>
</g>
</svg>
